<svg xmlns="http://www.w3.org/2000/svg" width="225" height="225" viewBox="0 0 225 225">
  <path d="M0 225h225V0H0v225z" fill="#fa8e01"/>
  <path d="M105.8 125.9l3.2 13.4c-4.5 2.5-10.1 3.7-16.8 3.7-15.5 0-23.3-9.9-23.3-29.7 0-10.8 2.2-18.6 6.7-23.6 4.4-4.9 10.8-7.3 19.2-7.3 5.1 0 9.7.7 13.9 2.2l-3.1 14.6c-3.2-1.7-6.4-2.5-9.5-2.5-2.7 0-4.8 1-6.3 3.2-1.4 2.2-2.1 6.1-2.1 11.6 0 5.7.7 9.9 2.3 12.9 1.5 2.9 3.7 4.4 6.5 4.4 2.5 0 5.6-1 9.3-2.9zM156.1 141.8h-14.3l-1.5-5.7c-.1.1-.6.5-1.5 1.1l-1.7 1.2c-.3.2-.8.6-1.6 1.1-.8.6-1.5.9-1.9 1.1l-1.9 1c-.9.4-1.6.6-2.3.8-.7.1-1.4.3-2.3.4-.9.2-1.8.2-2.6.2-4.1 0-7.2-1.5-9.3-4.7-2-3.2-3.1-7.1-3.1-11.8 0-10.7 8.3-16.7 24.9-18v-7c0-3.9-1.9-5.8-5.8-5.8-3.2 0-7.7 1.1-13.4 3.4L114.3 86c7.5-2.7 14.3-4 20.3-4 7.4 0 12.5 1.7 15.5 5.2 2.9 3.5 4.4 8.3 4.4 14.3v21.3c0 4.5.5 10.8 1.6 19zm-19-13.8v-9.8c-1.9.2-3.4.5-4.5.7-1.1.2-2.2.7-3.2 1.6-1 .9-1.5 2-1.5 3.5 0 2 .4 3.6 1.2 4.7.9 1.2 1.9 1.7 3.2 1.7 1.2 0 2.8-.8 4.8-2.4z" fill="#fff"/>
  <path d="M25 112.5C25 64.2 64.2 25 112.5 25S200 64.2 200 112.5 160.8 200 112.5 200 25 160.8 25 112.5zm156.3 0c0-38-30.9-68.8-68.8-68.8-38 0-68.8 30.8-68.8 68.8 0 37.9 30.8 68.7 68.8 68.7 37.9 0 68.8-30.8 68.8-68.7z" fill="#fff"/>
</svg>
